<?xml version="1.0" encoding="utf-8"?>
<!-- Generator: Adobe Illustrator 24.1.2, SVG Export Plug-In . SVG Version: 6.00 Build 0)  -->
<svg version="1.1" id="Camada_1" xmlns="http://www.w3.org/2000/svg" xmlns:xlink="http://www.w3.org/1999/xlink" x="0px" y="0px"
	 viewBox="0 0 283.5 283.5" style="enable-background:new 0 0 283.5 283.5;" xml:space="preserve">
<style type="text/css">
	.st0{fill:#B55C17;}
</style>
<g id="Terracota">
	<g>
		<path class="st0" d="M277.1,211.5c-1.2-1.4-24.2,30-66,38.9c-36.1,7.7-74.8-3.8-81.5-5.7c-8.2-2.4-26.2-8.5-32.4-10.5
			c-15-5-27-9.2-34.3-11.8v-181c0-6,1.6-10.7,4.9-14.1c1.9-2,4-3.6,6.3-4.9c2.1-1.2,3.9-1.8,5.2-2.2c2.9-1,5.5-1.4,7.6-1.6
			c0-1.4-0.1-2.8-0.1-4.3c-25,0-49.9,0-74.9,0c0,1.5,0.1,2.9,0.1,4.4c1.6,0.3,3.9,0.7,6.4,1.6c1.1,0.4,2.8,0.9,4.7,1.9
			c2.5,1.3,4.7,3,6.8,5.1c3.3,3.4,4.9,8.1,4.9,14.1v160.9c-0.1,4.7-0.3,9.4-0.4,14c-2.9-0.3-7.6-0.5-13,1.2
			c-8.3,2.6-13.2,7.9-15.2,10.3c0.1,0.5,0.2,1.1,0.3,1.6c1.5-0.8,3.7-1.9,6.6-2.7c0,0,4.6-1.4,9.8-1.5c14.2-0.4,37.8,11.6,48.4,17
			c3.8,1.9,5.5,2.8,5.5,2.8c5.8,3.1,10.7,6,19.5,9.7c1.2,0.5,2.6,1.1,4.1,1.7c3,1.3,6,2.3,8.8,3.2c3.3,1.1,7,2.2,11,3.3
			c12,3.2,52.3,13.3,93-1C255.2,247.2,278.3,212.9,277.1,211.5z"/>
		<g>
			<path class="st0" d="M150.8,205.4H89.2v-2.9c2.4,0,5.3-0.5,8.4-1.5c3.2-1,6-2.7,8.4-5.2c2.4-2.5,3.6-5.9,3.6-10.3V67.8
				c0-4.4-1.2-7.9-3.6-10.3c-2.4-2.5-5.2-4.2-8.4-5.2c-3.2-1-6-1.5-8.4-1.5v-2.9h61.4c17.2,0,32.4,3.2,45.5,9.5
				c13.1,6.3,23.4,15.4,30.8,27.1c7.4,11.8,11.1,25.8,11.1,42.2c0,16.3-3.7,30.3-11.1,42.1c-7.4,11.8-17.6,20.9-30.8,27.2
				C183,202.3,167.9,205.4,150.8,205.4z M150.8,200.3c13.1,0,24.5-3.1,34.2-9.4c9.7-6.3,17.3-15,22.8-26c5.4-11.1,8.2-23.8,8.2-38.2
				s-2.7-27.1-8.2-38.2c-5.4-11.1-13-19.7-22.8-26c-9.7-6.3-21.2-9.4-34.2-9.4h-20.5v147.3H150.8z"/>
		</g>
	</g>
</g>
<g>
</g>
<g>
</g>
<g>
</g>
<g>
</g>
<g>
</g>
<g>
</g>
</svg>
