<?xml version="1.0" encoding="utf-8"?>
<!-- Generator: Adobe Illustrator 24.1.2, SVG Export Plug-In . SVG Version: 6.00 Build 0)  -->
<svg version="1.1" id="Camada_1" xmlns="http://www.w3.org/2000/svg" xmlns:xlink="http://www.w3.org/1999/xlink" x="0px" y="0px"
	 viewBox="0 0 283.5 283.5" style="enable-background:new 0 0 283.5 283.5;" xml:space="preserve">
<style type="text/css">
	.st0{fill:#B55C17;}
</style>
<g id="Terracota_1_">
	<g>
		<path class="st0" d="M251.8,160.4c-1-1.1-19.7,24.4-53.6,31.6c-29.3,6.3-60.8-3.1-66.2-4.7c-6.6-2-21.3-6.9-26.3-8.6
			c-12.2-4.1-21.9-7.5-27.9-9.6V22.1c0-4.9,1.3-8.7,4-11.5c1.6-1.6,3.3-2.9,5.1-4c1.7-1,3.2-1.4,4.3-1.8c2.4-0.8,4.5-1.2,6.2-1.3
			c0-1.2,0-2.3-0.1-3.5C76.9,0,56.6,0,36.3,0c0,1.2,0,2.4,0.1,3.5c1.3,0.2,3.1,0.6,5.2,1.3c0.9,0.3,2.3,0.8,3.8,1.6
			c2,1.1,3.8,2.5,5.5,4.2c2.7,2.7,4,6.6,4,11.5v130.8c-0.1,3.8-0.2,7.6-0.4,11.4c-2.3-0.3-6.1-0.4-10.5,1
			c-6.7,2.1-10.8,6.4-12.3,8.4c0.1,0.4,0.2,0.9,0.2,1.3c1.2-0.6,3-1.5,5.4-2.2c0,0,3.8-1.1,7.9-1.3c11.5-0.3,30.7,9.5,39.3,13.8
			c3.1,1.6,4.5,2.3,4.5,2.3c4.7,2.5,8.7,4.9,15.9,7.9c1,0.4,2.1,0.9,3.4,1.4c2.4,1,4.8,1.9,7.2,2.6c2.7,0.9,5.7,1.8,8.9,2.7
			c9.8,2.6,42.5,10.8,75.6-0.8C234,189.5,252.7,161.6,251.8,160.4z"/>
		<g>
			<path class="st0" d="M149.1,155.5h-50v-2.3c2,0,4.3-0.4,6.9-1.2c2.6-0.8,4.9-2.2,6.8-4.2c1.9-2,2.9-4.8,2.9-8.4V43.6
				c0-3.6-1-6.4-2.9-8.4c-1.9-2-4.2-3.4-6.8-4.2c-2.6-0.8-4.9-1.2-6.9-1.2v-2.3H149c14,0,26.3,2.6,37,7.7c10.7,5.1,19,12.5,25,22
				c6,9.6,9,21,9,34.3c0,13.2-3,24.7-9,34.2c-6,9.6-14.3,17-25,22.1C175.3,152.9,163,155.5,149.1,155.5z M149.1,151.3
				c10.6,0,19.9-2.6,27.8-7.7c7.9-5.1,14.1-12.2,18.5-21.2c4.4-9,6.6-19.4,6.6-31s-2.2-22-6.6-31c-4.4-9-10.6-16.1-18.5-21.2
				c-7.9-5.1-17.2-7.7-27.8-7.7h-16.7v119.7H149.1z"/>
		</g>
		<g>
			<path class="st0" d="M52.2,225.4c3.2,0,6.2,1.3,8.5,3.7l0.1,0.1l2-0.5l-0.4-0.4c-2.6-3.1-6.4-4.8-10.3-4.8
				c-7.6,0-13.7,6.3-13.7,14.1c0,7.8,6.2,14.1,13.7,14.1c3.9,0,7.7-1.8,10.3-4.8l0.4-0.4l-2-0.5l-0.1,0.1c-2.3,2.4-5.3,3.7-8.5,3.7
				c-6.5,0-11.9-5.5-11.9-12.2C40.3,230.9,45.6,225.4,52.2,225.4z"/>
			<path class="st0" d="M88.8,223.3c-7.8,0-14.2,6.4-14.2,14.2c0,7.8,6.4,14.2,14.2,14.2c7.8,0,14.2-6.4,14.2-14.2
				C103.1,229.6,96.7,223.3,88.8,223.3z M101,237.5c0,6.7-5.4,12.1-12.1,12.1s-12.1-5.4-12.1-12.1c0-6.7,5.4-12.2,12.1-12.2
				S101,230.7,101,237.5z"/>
			<polygon class="st0" points="132.1,247.4 117.4,224.2 117.3,224 115.6,224 115.6,251 117.5,251 117.5,227.6 132.2,250.9 
				132.3,251 134,251 134,224 132.1,224 			"/>
			<path class="st0" d="M159.8,225.4c3.2,0,6.2,1.3,8.5,3.7l0.1,0.1l2-0.5l-0.4-0.4c-2.6-3.1-6.4-4.8-10.3-4.8
				c-7.6,0-13.7,6.3-13.7,14.1c0,7.8,6.2,14.1,13.7,14.1c3.9,0,7.7-1.8,10.3-4.8l0.4-0.4l-2-0.5l-0.1,0.1c-2.3,2.4-5.3,3.7-8.5,3.7
				c-6.5,0-11.9-5.5-11.9-12.2C147.9,230.9,153.3,225.4,159.8,225.4z"/>
			<polygon class="st0" points="182.2,251.1 193.6,251.1 193.6,249 184.2,249 184.2,236.1 193.6,236.1 193.6,234.1 184.2,234.1 
				184.2,225.4 193.6,225.4 193.6,223.4 182.2,223.4 			"/>
			<path class="st0" d="M216.6,225.6c-1.9-1.6-4.3-2.5-7-2.5c-0.8,0-1.5,0.1-2.3,0.3l-0.3,0.1V251h1.9v-11.2c0.2,0,0.5,0,0.7,0
				c2.6,0,5.1-0.8,6.9-2.1c1.9-1.5,3-3.6,3-5.9C219.5,229.5,218.4,227.3,216.6,225.6z M217.8,231.8c0,3.6-3.4,6.3-8.2,6.3
				c-0.2,0-0.5,0-0.7,0v-13.3c0.2,0,0.5,0,0.7,0C214.1,224.8,217.8,228,217.8,231.8z"/>
			<polygon class="st0" points="231.1,223.3 231.1,225.4 237.1,225.4 237.1,251.1 239.1,251.1 239.1,225.4 245.2,225.4 245.2,223.3 
							"/>
		</g>
	</g>
	<g>
		<path class="st0" d="M111.1,264.1v19.3h-1v-10.6h-8.4v10.6h-1v-19.3h1v7.7h8.4v-7.7H111.1z"/>
		<path class="st0" d="M136.9,273.9h-6.4l-3.6,9.5h-1l7.3-19.3h0.9l7.3,19.3h-0.9L136.9,273.9z M136.5,273.1l-2.9-7.6l-2.9,7.6
			H136.5z"/>
		<path class="st0" d="M157.9,283.5h-1v-19.3h1V283.5z"/>
		<path class="st0" d="M181.6,283.4l-4.9-8.3c-0.5,0.1-1.1,0.2-1.7,0.2c-0.3,0-0.5,0-0.8,0v8.2h-0.9v-19.8c0.5-0.1,1.1-0.2,1.6-0.2
			c1.9,0,3.6,0.6,4.9,1.8c1.3,1.2,2.1,2.7,2.1,4.4c0,1.6-0.7,3.1-2.1,4.1c-0.6,0.5-1.4,0.9-2.3,1.2l5.2,8.5H181.6z M175,274.5
			c3.6,0,6.2-2,6.2-4.9c0-3-2.8-5.4-6.2-5.4c-0.3,0-0.5,0-0.8,0.1v10.2C174.5,274.5,174.8,274.5,175,274.5z"/>
	</g>
</g>
<g>
</g>
<g>
</g>
<g>
</g>
<g>
</g>
<g>
</g>
<g>
</g>
</svg>
